<svg width="80" height="80" viewBox="0 0 80 80" fill="none" xmlns="http://www.w3.org/2000/svg">
<path d="M0 16C0 7.16344 7.16344 0 16 0H64C72.8366 0 80 7.16344 80 16V64C80 72.8366 72.8366 80 64 80H16C7.16344 80 0 72.8366 0 64V16Z" fill="#1A56DB" fill-opacity="0.08"/>
<path d="M39.2873 25.4423C39.353 25.3095 39.4546 25.1977 39.5804 25.1196C39.7063 25.0414 39.8516 25 39.9998 25C40.148 25 40.2932 25.0414 40.4191 25.1196C40.545 25.1977 40.6465 25.3095 40.7123 25.4423L44.1773 32.4608C44.4055 32.9228 44.7425 33.3225 45.1592 33.6255C45.5759 33.9286 46.06 34.126 46.5698 34.2008L54.3188 35.3348C54.4656 35.3561 54.6035 35.418 54.717 35.5136C54.8305 35.6092 54.9149 35.7347 54.9608 35.8758C55.0067 36.0168 55.0122 36.168 54.9766 36.312C54.9411 36.456 54.866 36.5873 54.7598 36.6908L49.1558 42.1478C48.7862 42.508 48.5097 42.9526 48.35 43.4433C48.1904 43.934 48.1524 44.4562 48.2393 44.9648L49.5623 52.6748C49.5882 52.8216 49.5723 52.9727 49.5165 53.1109C49.4607 53.249 49.3672 53.3688 49.2466 53.4563C49.126 53.5439 48.9832 53.5958 48.8346 53.6062C48.6859 53.6165 48.5373 53.5849 48.4058 53.5148L41.4788 49.8728C41.0223 49.6332 40.5145 49.508 39.999 49.508C39.4835 49.508 38.9757 49.6332 38.5193 49.8728L31.5938 53.5148C31.4623 53.5845 31.3139 53.6158 31.1654 53.6052C31.017 53.5947 30.8745 53.5427 30.7542 53.4552C30.6339 53.3677 30.5405 53.2481 30.4848 53.1102C30.429 52.9722 30.4131 52.8214 30.4388 52.6748L31.7603 44.9663C31.8476 44.4574 31.8097 43.9349 31.6501 43.4439C31.4904 42.9529 31.2137 42.5081 30.8438 42.1478L25.2398 36.6923C25.1327 36.5889 25.0568 36.4574 25.0207 36.313C24.9847 36.1685 24.9899 36.0168 25.0359 35.8751C25.0819 35.7335 25.1667 35.6076 25.2807 35.5118C25.3947 35.416 25.5333 35.3542 25.6808 35.3333L33.4283 34.2008C33.9387 34.1266 34.4234 33.9294 34.8406 33.6263C35.2579 33.3232 35.5953 32.9232 35.8238 32.4608L39.2873 25.4423Z" stroke="#1A56DB" stroke-width="3" stroke-linecap="round" stroke-linejoin="round"/>
</svg>
