<svg width="191" height="171" viewBox="0 0 191 171" fill="none" xmlns="http://www.w3.org/2000/svg">
<mask id="mask0_518_4009" style="mask-type:luminance" maskUnits="userSpaceOnUse" x="0" y="0" width="191" height="171">
<path d="M190.639 0H0V171H190.639V0Z" fill="white"/>
</mask>
<g mask="url(#mask0_518_4009)">
<mask id="mask1_518_4009" style="mask-type:luminance" maskUnits="userSpaceOnUse" x="-52" y="-26" width="829" height="920">
<path d="M-51.7305 -25.3867H776.685V893.559H-51.7305V-25.3867Z" fill="white"/>
</mask>
<g mask="url(#mask1_518_4009)">
<g opacity="0.5">
<path d="M26.6914 85.0558L116.301 33.5696L26.6914 85.0558Z" fill="#EAECF0"/>
<path d="M26.6914 85.0558L116.301 33.5696" stroke="#1A56DB" stroke-width="22.0369" stroke-linecap="round"/>
</g>
<g opacity="0.5">
<path d="M48.0078 118.825L137.617 67.3384L48.0078 118.825Z" fill="#EAECF0"/>
<path d="M48.0078 118.825L137.617 67.3384" stroke="#1A56DB" stroke-width="22.0369" stroke-linecap="round"/>
</g>
<g opacity="0.5">
<path d="M160.57 54.4005L167.554 50.335L160.57 54.4005Z" fill="#EAECF0"/>
<path d="M160.57 54.4005L167.554 50.335" stroke="#1A56DB" stroke-width="22.0369" stroke-linecap="round"/>
</g>
<g opacity="0.5">
<path d="M79.6211 146.606L147.676 106.856L79.6211 146.606Z" fill="#EAECF0"/>
<path d="M79.6211 146.606L147.676 106.856" stroke="#1A56DB" stroke-width="22.0369" stroke-linecap="round"/>
</g>
<path d="M164.755 109.674C165.778 109.731 166.473 110.697 166.305 111.83C166.138 112.962 165.172 113.836 164.149 113.779C163.127 113.721 162.432 112.755 162.599 111.623C162.767 110.49 163.733 109.616 164.755 109.674Z" stroke="#1A56DB" stroke-width="1.02589"/>
<path d="M49.598 151.75C51.2797 151.844 52.4219 153.433 52.1469 155.295C51.8719 157.158 50.2832 158.594 48.6014 158.5C46.9197 158.406 45.7775 156.817 46.0525 154.955C46.3275 153.092 47.9162 151.656 49.598 151.75Z" stroke="#1A56DB" stroke-width="1.68701"/>
<path d="M93.4066 17.2543C95.0883 17.3483 96.2305 18.937 95.9555 20.7997C95.6805 22.6625 94.0918 24.0986 92.41 24.0046C90.7283 23.9106 89.5861 22.3219 89.8611 20.4591C90.1361 18.5964 91.7248 17.1603 93.4066 17.2543Z" stroke="#1A56DB" stroke-width="1.68701"/>
<path d="M18.6128 59.8503C19.4361 59.8503 20.1045 60.5188 20.1045 61.3421C20.1045 62.1653 19.4361 62.8338 18.6128 62.8338C17.7895 62.8338 17.1211 62.1653 17.1211 61.3421C17.1211 60.5188 17.7895 59.8503 18.6128 59.8503Z" stroke="#1A56DB" stroke-width="1.23313"/>
<path d="M134.472 157.127C135.295 157.127 135.964 157.795 135.964 158.619C135.964 159.442 135.295 160.11 134.472 160.11C133.649 160.11 132.98 159.442 132.98 158.619C132.98 157.795 133.649 157.127 134.472 157.127Z" stroke="#1A56DB" stroke-width="1.23313"/>
<path d="M152.301 16.9919L152.66 16.9931L152.733 11.0063L152.373 11.0051L152.014 11.0039L151.942 16.9908L152.301 16.9919Z" fill="#1A56DB"/>
<path d="M149.445 13.9753L149.444 14.3346L155.431 14.4073L155.432 14.0481L155.433 13.6889L149.446 13.6161L149.445 13.9753Z" fill="#1A56DB"/>
<path d="M25.5156 114.705L25.8749 114.702L25.6531 108.718L25.2938 108.722L24.9345 108.726L25.1563 114.709L25.5156 114.705Z" fill="#1A56DB"/>
<path d="M22.5156 111.833L22.5187 112.192L28.5026 111.97L28.4995 111.611L28.4964 111.252L22.5125 111.474L22.5156 111.833Z" fill="#1A56DB"/>
<path d="M150.066 140.552L150.426 140.538L149.701 134.594L149.342 134.608L148.982 134.623L149.707 140.566L150.066 140.552Z" fill="#1A56DB"/>
<path d="M146.836 137.942L146.848 138.298L152.792 137.573L152.78 137.217L152.768 136.86L146.824 137.585L146.836 137.942Z" fill="#1A56DB"/>
</g>
<path d="M95.3463 42.4578C119.105 42.4578 138.396 61.7482 138.396 85.5072C138.396 109.266 119.105 128.557 95.3463 128.557C71.5873 128.557 52.2969 109.266 52.2969 85.5072C52.2969 61.7482 71.5873 42.4578 95.3463 42.4578Z" fill="#365495"/>
<path d="M95.3216 46.5295C116.834 46.5295 134.299 63.9955 134.299 85.5074C134.299 107.019 116.834 124.485 95.3216 124.485C73.8097 124.485 56.3438 107.019 56.3438 85.5074C56.3438 63.9955 73.8097 46.5295 95.3216 46.5295Z" fill="#042875"/>
<path d="M77.7188 86.9369L88.2566 97.2352L112.925 72.5671" stroke="#EAECF0" stroke-width="4.31092"/>
</g>
</svg>
