<svg width="196" height="156" viewBox="0 0 196 156" fill="none" xmlns="http://www.w3.org/2000/svg">
<path d="M147.859 62.5034C172.438 93.5078 178.407 98.1823 146.689 123.327C114.972 148.471 69.3347 143.721 44.7552 112.717C20.1757 81.7122 25.9619 36.1944 57.6791 11.0498C89.3963 -14.0948 123.279 31.499 147.859 62.5034Z" fill="#CEDEFF"/>
<mask id="mask0_159_9656" style="mask-type:luminance" maskUnits="userSpaceOnUse" x="10" y="-17" width="186" height="186">
<path d="M195.75 -16.001H10.75V168.999H195.75V-16.001Z" fill="white"/>
</mask>
<g mask="url(#mask0_159_9656)">
<path d="M103.249 42.2739C122.138 42.2739 137.474 57.6101 137.474 76.4989C137.474 95.3877 122.138 110.724 103.249 110.724C84.3606 110.724 69.0244 95.3877 69.0244 76.4989C69.0244 57.6101 84.3606 42.2739 103.249 42.2739Z" fill="#C1DAFF"/>
<path d="M103.249 42.2739C122.138 42.2739 137.474 57.6101 137.474 76.4989C137.474 95.3877 122.138 110.724 103.249 110.724C84.3606 110.724 69.0244 95.3877 69.0244 76.4989C69.0244 57.6101 84.3606 42.2739 103.249 42.2739Z" fill="#C1DAFF"/>
<path d="M103.25 37.3003C124.883 37.3003 142.447 54.8648 142.447 76.4981C142.447 98.1314 124.883 115.696 103.25 115.696C81.6163 115.696 64.0518 98.1314 64.0518 76.4981C64.0518 54.8648 81.6163 37.3003 103.25 37.3003Z" fill="#C1DAFF"/>
<g opacity="0.08">
<path d="M179.597 111.685C179.406 111.142 178.474 110.731 177.35 110.731H162.969V40.0492C162.967 39.3973 162.707 38.7733 162.246 38.3123C161.785 37.852 161.161 37.5921 160.509 37.5899H44.5174C44.1929 37.5877 43.8714 37.6501 43.5704 37.7727C43.2701 37.8953 42.997 38.0759 42.7665 38.3049C42.536 38.5333 42.3525 38.8049 42.2277 39.1044C42.1021 39.4032 42.0368 39.7247 42.0361 40.0492V110.731H30.6497C29.5265 110.731 28.5942 111.142 28.4033 111.685V114.035C28.4033 114.673 36.699 116.876 37.8442 116.876H170.156C171.301 116.876 179.597 114.673 179.597 114.035V111.685Z" fill="#0890B1"/>
</g>
<path d="M40.8477 111.428V38.5804C40.8513 37.9938 41.0833 37.4322 41.4944 37.0138C41.9055 36.5961 42.4635 36.3545 43.05 36.3413H161.979C162.575 36.3391 163.148 36.5748 163.572 36.9947C163.996 37.4139 164.236 37.9843 164.24 38.5804V111.428H40.8477Z" fill="#F4F5F9"/>
<path d="M161.98 36.5616C162.518 36.5594 163.035 36.7709 163.418 37.1497C163.8 37.5277 164.017 38.0424 164.021 38.5805V111.208H41.0328V38.5805C41.0365 38.046 41.2508 37.5351 41.6282 37.157C42.0063 36.7797 42.5172 36.5653 43.0517 36.5616H161.98ZM161.98 36.1212H43.0517C42.7272 36.1189 42.4056 36.1813 42.1046 36.3039C41.8044 36.4265 41.5313 36.6071 41.3008 36.8362C41.0703 37.0645 40.8867 37.3361 40.7619 37.6357C40.6364 37.9344 40.571 38.256 40.5703 38.5805V111.648H164.418V38.5805C164.415 37.9322 164.159 37.3112 163.703 36.8516C163.247 36.3913 162.628 36.1285 161.98 36.1212Z" fill="#0890B1"/>
<path d="M160.327 39.7925H44.5186V104.212H160.327V39.7925Z" fill="#1A56DA"/>
<path d="M160.327 104.212H44.7021V39.976H160.327V104.212ZM160.511 39.7925H44.5186V104.396H160.511V39.7925Z" fill="#0890B1"/>
<path d="M36.3427 115.187C35.1608 115.187 27.5332 113.073 27.1074 112.507V110.437H177.912V112.566C177.523 113.073 169.836 115.187 168.691 115.187H36.3427Z" fill="#F4F5F9"/>
<path d="M177.692 110.657V112.419C176.723 113.08 169.785 114.967 168.692 114.967H36.3432C35.242 114.967 28.3119 113.08 27.3428 112.419V110.657H177.692ZM178.133 110.217H26.9023V112.566C26.9023 113.205 35.198 115.407 36.3432 115.407H168.692C169.837 115.407 178.133 113.205 178.133 112.566V110.217Z" fill="#0890B1"/>
<path d="M29.182 113.08C27.9707 113.08 27.1191 112.588 27.1191 112.14V110.415C27.1191 109.975 27.9707 109.483 29.182 109.483H175.846C177.057 109.483 177.909 109.975 177.909 110.415V112.14C177.909 112.588 177.057 113.08 175.846 113.08H29.182Z" fill="#F4F5F9"/>
<path d="M175.849 109.703C177.039 109.703 177.692 110.173 177.692 110.437V112.162C177.692 112.404 177.039 112.896 175.849 112.896H29.1855C27.9962 112.896 27.3428 112.426 27.3428 112.162V110.415C27.3428 110.173 27.9962 109.681 29.1855 109.681H175.849V109.703ZM175.849 109.24H29.1855C27.9228 109.24 26.9023 109.754 26.9023 110.393V112.118C26.9023 112.757 27.9228 113.271 29.1855 113.271H175.849C177.112 113.271 178.133 112.757 178.133 112.118V110.415C178.133 109.776 177.112 109.262 175.849 109.262V109.24Z" fill="#0890B1"/>
<path d="M88.414 111.002C88.3061 111.003 88.1997 110.983 88.0998 110.942C88 110.901 87.9097 110.843 87.8333 110.766C87.7562 110.691 87.696 110.6 87.6542 110.501C87.6131 110.401 87.5918 110.295 87.5918 110.187V109.534C87.7768 109.688 88.011 109.772 88.2525 109.769H116.781C117.021 109.77 117.256 109.687 117.441 109.534V110.158C117.441 110.266 117.42 110.373 117.379 110.472C117.337 110.571 117.276 110.661 117.2 110.736C117.124 110.813 117.033 110.873 116.933 110.913C116.834 110.954 116.727 110.974 116.619 110.973L88.414 111.002Z" fill="#F4F5F9"/>
<path d="M117.344 109.724V110.172C117.344 110.367 117.267 110.553 117.129 110.691C116.992 110.829 116.805 110.906 116.61 110.906H88.4123C88.2177 110.906 88.0305 110.829 87.8932 110.691C87.7552 110.553 87.6781 110.367 87.6781 110.172V109.724C87.8506 109.821 88.0452 109.871 88.2434 109.87H116.772C116.97 109.871 117.164 109.821 117.337 109.724H117.344ZM117.52 109.32C117.434 109.434 117.324 109.526 117.196 109.59C117.069 109.654 116.929 109.686 116.786 109.687H88.2507C88.1083 109.688 87.9674 109.655 87.8396 109.591C87.7126 109.528 87.6018 109.434 87.5166 109.32V110.172C87.5159 110.292 87.5386 110.411 87.5842 110.522C87.6297 110.632 87.6965 110.733 87.7809 110.818C87.8661 110.903 87.9666 110.969 88.0775 111.014C88.1883 111.06 88.3073 111.083 88.4269 111.082H116.632C116.752 111.083 116.871 111.06 116.982 111.014C117.092 110.969 117.193 110.903 117.278 110.818C117.363 110.733 117.429 110.632 117.475 110.522C117.52 110.411 117.543 110.292 117.542 110.172V109.32H117.52Z" fill="#0890B1"/>
<path d="M94.5871 72.0949C94.5871 70.4211 95.9474 69.06 97.6212 69.06H101.537V67.1997H97.6212C94.9196 67.1997 92.7275 69.3933 92.7275 72.0949C92.7275 74.7965 94.9196 76.9886 97.6212 76.9886H101.537V75.1283H97.6212C95.9474 75.1283 94.5871 73.7687 94.5871 72.0949ZM98.6006 73.0727H106.431V71.1155H98.6006V73.0727ZM107.41 67.1997H103.494V69.06H107.41C109.084 69.06 110.444 70.4211 110.444 72.0949C110.444 73.7687 109.084 75.1283 107.41 75.1283H103.494V76.9886H107.41C110.112 76.9886 112.304 74.7965 112.304 72.0949C112.304 69.3933 110.112 67.1997 107.41 67.1997Z" fill="#F4F5F9"/>
</g>
</svg>
