<svg width="212" height="78" viewBox="0 0 212 78" fill="none" xmlns="http://www.w3.org/2000/svg">
<mask id="mask0_155_8237" style="mask-type:luminance" maskUnits="userSpaceOnUse" x="0" y="0" width="212" height="78">
<path d="M211.714 0H0V78H211.714V0Z" fill="white"/>
</mask>
<g mask="url(#mask0_155_8237)">
<path d="M140.88 26.0922L117.629 24.1051L108.548 2.89707C106.914 -0.96569 101.342 -0.96569 99.708 2.89707L90.6268 24.1423L67.4131 26.0922C63.1975 26.4265 61.4704 31.6635 64.6832 34.4306L82.307 49.5845L77.0329 72.0739C76.0672 76.1781 80.5242 79.4094 84.1827 77.2181L104.128 65.3141L124.055 77.2738C127.694 79.4652 132.189 76.2338 131.223 72.1296L125.93 49.5845L143.554 34.4306C146.767 31.6635 145.095 26.4265 140.88 26.0922Z" fill="#FFD642"/>
<path d="M90.0889 24.1422L99.1701 2.89697L91.6303 28.3578L65.9466 30.4749L86.0776 49.5844L80.5248 73.7266L104.129 61.6741C110.368 66.1683 127.732 74.4323 127.732 74.4323L122.867 48.9158L143.035 34.4305L125.652 49.6215L131.205 72.2967C132.171 76.4008 127.175 79.4651 123.535 77.2737L104.129 65.2211L83.9976 77.2737C80.3577 79.4651 75.5292 76.178 76.4949 72.0738L81.7877 49.5844L64.1453 34.4305C60.9325 31.6634 62.6596 26.4264 66.8938 26.0921L90.0889 24.1422Z" fill="#FFC93D"/>
<path d="M164.392 25.7395L166.379 27.7823C167.456 28.878 167.252 30.8651 166.379 31.7565L164.392 33.7993C163.315 34.895 161.569 34.895 160.492 33.7993L158.505 31.7565C157.428 30.6608 157.632 28.6737 158.505 27.7823L160.492 25.7395C161.569 24.6438 163.315 24.6438 164.392 25.7395Z" fill="#FFC93D" fill-opacity="0.4"/>
<path d="M180.01 61.5439L181.997 63.5682C183.074 64.6639 182.87 66.6695 181.997 67.5609L180.01 69.5852C178.933 70.6809 177.187 70.6809 176.11 69.5852L174.104 67.5609C173.027 66.4652 173.231 64.4596 174.104 63.5682L176.11 61.5439C177.187 60.4482 178.933 60.4482 180.01 61.5439Z" fill="#FFC93D" fill-opacity="0.4"/>
<path d="M188.329 41.6916L190.316 43.7159C191.393 44.8116 191.189 46.7987 190.316 47.6901L188.329 49.7329C187.252 50.8286 185.506 50.8286 184.429 49.7329L182.442 47.6901C181.365 46.5944 181.569 44.6073 182.442 43.7159L184.429 41.6916C185.506 40.596 187.252 40.596 188.329 41.6916Z" fill="#FFE899" fill-opacity="0.4"/>
<path d="M207.771 34.5979L209.758 36.6221C210.835 37.7178 210.631 39.7235 209.758 40.6149L207.771 42.6391C206.694 43.7348 204.948 43.7348 203.871 42.6391L201.884 40.6149C200.807 39.5192 201.011 37.5135 201.884 36.6221L203.871 34.5979C204.948 33.5022 206.694 33.5022 207.771 34.5979Z" fill="#FFE899" fill-opacity="0.4"/>
<path d="M44.8694 27.5036L42.8823 29.5464C41.8052 30.6421 39.8553 30.4378 38.9824 29.5464L36.9953 27.5036C35.9182 26.4079 35.9182 24.6251 36.9953 23.5294L38.9824 21.4866C40.0595 20.3909 42.0095 20.5952 42.8823 21.4866L44.8694 23.5294C45.9465 24.6251 45.9465 26.4079 44.8694 27.5036Z" fill="#FFC93D" fill-opacity="0.4"/>
<path d="M9.8245 43.4377L7.83741 45.4805C6.76029 46.5762 4.81034 46.3719 3.93751 45.4805L1.95041 43.4377C0.873299 42.342 0.873299 40.5592 1.95041 39.4635L3.93751 37.4393C5.01462 36.3436 6.96458 36.5479 7.83741 37.4393L9.8245 39.4635C10.9016 40.5592 10.9016 42.342 9.8245 43.4377Z" fill="#FFE899" fill-opacity="0.4"/>
<path d="M30.6634 68.9726L28.6577 70.9968C27.5806 72.0925 25.6492 71.8882 24.7764 70.9968L22.7707 68.9726C21.6936 67.8769 21.6936 66.0755 22.7707 64.9799L24.7764 62.9556C25.8535 61.8599 27.7849 62.0642 28.6577 62.9556L30.6634 64.9799C31.7405 66.0755 31.7405 67.8769 30.6634 68.9726Z" fill="#FFC93D" fill-opacity="0.4"/>
</g>
</svg>
