<svg width="20" height="20" viewBox="0 0 20 20" fill="none" xmlns="http://www.w3.org/2000/svg">
<g clip-path="url(#clip0_278_5014)">
<path d="M18.3198 14.0904V16.5886C18.3208 16.8206 18.2732 17.0501 18.1803 17.2626C18.0874 17.4751 17.9512 17.6659 17.7803 17.8227C17.6094 17.9795 17.4076 18.0988 17.1879 18.1731C16.9682 18.2474 16.7354 18.275 16.5044 18.2542C13.9419 17.9757 11.4804 17.1001 9.31769 15.6976C7.3056 14.419 5.59971 12.7131 4.32114 10.701C2.91376 8.52854 2.03792 6.05507 1.76457 3.48102C1.74376 3.25074 1.77113 3.01864 1.84493 2.79951C1.91874 2.58038 2.03736 2.37902 2.19325 2.20825C2.34914 2.03748 2.53887 1.90104 2.75038 1.80761C2.96189 1.71419 3.19054 1.66583 3.42176 1.66561H5.92004C6.32418 1.66163 6.71598 1.80474 7.02241 2.06827C7.32884 2.3318 7.52899 2.69777 7.58555 3.09795C7.691 3.89746 7.88656 4.68247 8.16849 5.438C8.28053 5.73607 8.30478 6.06 8.23836 6.37143C8.17194 6.68285 8.01764 6.96871 7.79374 7.19513L6.73614 8.25273C7.92162 10.3376 9.64784 12.0638 11.7327 13.2493L12.7903 12.1917C13.0167 11.9678 13.3026 11.8135 13.614 11.7471C13.9254 11.6806 14.2494 11.7049 14.5474 11.8169C15.303 12.0989 16.088 12.2944 16.8875 12.3999C17.292 12.4569 17.6614 12.6607 17.9255 12.9724C18.1896 13.2841 18.3299 13.682 18.3198 14.0904Z" stroke="#1A56DB" stroke-width="1.66552" stroke-linecap="round" stroke-linejoin="round"/>
</g>
<defs>
<clipPath id="clip0_278_5014">
<rect width="19.9862" height="19.9862" fill="white"/>
</clipPath>
</defs>
</svg>
