<svg width="80" height="80" viewBox="0 0 80 80" fill="none" xmlns="http://www.w3.org/2000/svg">
<path d="M0 16C0 7.16344 7.16344 0 16 0H64C72.8366 0 80 7.16344 80 16V64C80 72.8366 72.8366 80 64 80H16C7.16344 80 0 72.8366 0 64V16Z" fill="#1A56DB" fill-opacity="0.08"/>
<path d="M52 41.5002C52 49.0002 46.75 52.7502 40.51 54.9252C40.1832 55.0359 39.8283 55.0306 39.505 54.9102C33.25 52.7502 28 49.0002 28 41.5002V31.0002C28 30.6024 28.158 30.2208 28.4393 29.9395C28.7206 29.6582 29.1022 29.5002 29.5 29.5002C32.5 29.5002 36.25 27.7002 38.86 25.4202C39.1778 25.1487 39.582 24.9995 40 24.9995C40.418 24.9995 40.8222 25.1487 41.14 25.4202C43.765 27.7152 47.5 29.5002 50.5 29.5002C50.8978 29.5002 51.2794 29.6582 51.5607 29.9395C51.842 30.2208 52 30.6024 52 31.0002V41.5002Z" stroke="#1A56DB" stroke-width="3" stroke-linecap="round" stroke-linejoin="round"/>
<path d="M35.5 40L38.5 43L44.5 37" stroke="#1A56DB" stroke-width="3" stroke-linecap="round" stroke-linejoin="round"/>
</svg>
