<svg width="191" height="171" viewBox="0 0 191 171" fill="none" xmlns="http://www.w3.org/2000/svg">
<mask id="mask0_159_9944" style="mask-type:luminance" maskUnits="userSpaceOnUse" x="0" y="0" width="191" height="171">
<path d="M190.639 0H0V171H190.639V0Z" fill="white"/>
</mask>
<g mask="url(#mask0_159_9944)">
<mask id="mask1_159_9944" style="mask-type:luminance" maskUnits="userSpaceOnUse" x="-52" y="-26" width="829" height="920">
<path d="M-51.7285 -25.3867H776.687V893.559H-51.7285V-25.3867Z" fill="white"/>
</mask>
<g mask="url(#mask1_159_9944)">
<g opacity="0.5">
<path d="M26.6904 85.0555L116.3 33.5693L26.6904 85.0555Z" fill="#F4F6F9"/>
<path d="M26.6904 85.0556L116.3 33.5693" stroke="#1A56DB" stroke-width="22.0369" stroke-linecap="round"/>
</g>
<g opacity="0.5">
<path d="M48.0029 118.825L137.613 67.3384L48.0029 118.825Z" fill="#F4F6F9"/>
<path d="M48.0029 118.825L137.613 67.3384" stroke="#1A56DB" stroke-width="22.0369" stroke-linecap="round"/>
</g>
<g opacity="0.5">
<path d="M160.568 54.4L167.552 50.3345L160.568 54.4Z" fill="#F4F6F9"/>
<path d="M160.568 54.4L167.552 50.3345" stroke="#1A56DB" stroke-width="22.0369" stroke-linecap="round"/>
</g>
<g opacity="0.5">
<path d="M79.6201 146.606L147.675 106.855L79.6201 146.606Z" fill="#F4F6F9"/>
<path d="M79.6201 146.606L147.675 106.855" stroke="#1A56DB" stroke-width="22.0369" stroke-linecap="round"/>
</g>
<path d="M164.63 109.748C165.721 109.847 166.528 110.813 166.429 111.904C166.331 112.996 165.364 113.802 164.273 113.703C163.182 113.605 162.375 112.639 162.474 111.547C162.572 110.456 163.538 109.65 164.63 109.748Z" stroke="#1A56DB" stroke-width="1.02589"/>
<path d="M49.3916 151.873C51.1864 152.035 52.5121 153.623 52.3502 155.418C52.1882 157.213 50.5995 158.539 48.8047 158.377C47.0099 158.215 45.6842 156.626 45.8462 154.831C46.0081 153.036 47.5969 151.711 49.3916 151.873Z" stroke="#1A56DB" stroke-width="1.68701"/>
<path d="M93.2012 17.3774C94.996 17.5394 96.3217 19.1281 96.1597 20.9229C95.9978 22.7177 94.4091 24.0434 92.6143 23.8814C90.8195 23.7195 89.4938 22.1307 89.6558 20.336C89.8177 18.5412 91.4064 17.2155 93.2012 17.3774Z" stroke="#1A56DB" stroke-width="1.68701"/>
<path d="M18.6108 59.8496C19.4341 59.8496 20.1026 60.518 20.1026 61.3413C20.1026 62.1646 19.4341 62.833 18.6108 62.833C17.7876 62.833 17.1191 62.1646 17.1191 61.3413C17.1191 60.518 17.7876 59.8496 18.6108 59.8496Z" stroke="#1A56DB" stroke-width="1.23313"/>
<path d="M134.472 157.126C135.295 157.126 135.964 157.795 135.964 158.618C135.964 159.441 135.295 160.11 134.472 160.11C133.649 160.11 132.98 159.441 132.98 158.618C132.98 157.795 133.649 157.126 134.472 157.126Z" stroke="#1A56DB" stroke-width="1.23313"/>
<path d="M152.301 16.9917L152.373 11.0047" stroke="#1A56DB" stroke-width="0.718487"/>
<path d="M149.446 13.9751L155.433 14.0478" stroke="#1A56DB" stroke-width="0.718487"/>
<path d="M25.5146 114.705L25.2922 108.722" stroke="#1A56DB" stroke-width="0.718487"/>
<path d="M22.5156 111.833L28.4989 111.61" stroke="#1A56DB" stroke-width="0.718487"/>
<path d="M150.062 140.552L149.338 134.608" stroke="#1A56DB" stroke-width="0.718487"/>
<path d="M146.832 137.942L152.775 137.217" stroke="#1A56DB" stroke-width="0.718487"/>
</g>
<path d="M95.3453 42.4575C119.104 42.4575 138.395 61.748 138.395 85.507C138.395 109.266 119.104 128.556 95.3453 128.556C71.5864 128.556 52.2959 109.266 52.2959 85.507C52.2959 61.748 71.5864 42.4575 95.3453 42.4575Z" fill="#365495"/>
<path d="M95.3177 46.5293C116.83 46.5293 134.296 63.9953 134.296 85.5072C134.296 107.019 116.83 124.485 95.3177 124.485C73.8058 124.485 56.3398 107.019 56.3398 85.5072C56.3398 63.9953 73.8058 46.5293 95.3177 46.5293Z" fill="#042875"/>
<path d="M77.7148 86.9366L88.2527 97.235L112.921 72.5669" stroke="#F4F6F9" stroke-width="4.31092"/>
</g>
</svg>
