<svg width="119" height="21" viewBox="0 0 119 21" fill="none" xmlns="http://www.w3.org/2000/svg">
<path d="M-0.000437468 0.280004H8.14756V3.08H3.07956V8.54H7.05556V11.34H3.07956V19.88H-0.000437468V0.280004ZM12.6246 0.280004H15.7046V17.08H20.7726V19.88H12.6246V0.280004ZM25.2496 0.280004H33.6496V3.08H28.3296V8.26H32.5576V11.06H28.3296V17.08H33.6496V19.88H25.2496V0.280004ZM38.4214 0.280004H46.8214V3.08H41.5014V8.26H45.7294V11.06H41.5014V17.08H46.8214V19.88H38.4214V0.280004ZM54.0013 3.08H50.7813V0.280004H60.3013V3.08H57.0813V19.88H54.0013V3.08Z" fill="#1A56DB"/>
<path d="M64.7925 0.280004H72.9405V3.08H67.8725V8.54H71.8485V11.34H67.8725V19.88H64.7925V0.280004ZM77.4175 0.280004H80.4975V17.08H85.5655V19.88H77.4175V0.280004ZM94.3852 20.16C92.8732 20.16 91.7158 19.7307 90.9132 18.872C90.1105 18.0133 89.7092 16.8 89.7092 15.232V4.928C89.7092 3.36 90.1105 2.14667 90.9132 1.288C91.7158 0.429337 92.8732 3.8147e-06 94.3852 3.8147e-06C95.8972 3.8147e-06 97.0545 0.429337 97.8572 1.288C98.6598 2.14667 99.0612 3.36 99.0612 4.928V15.232C99.0612 16.8 98.6598 18.0133 97.8572 18.872C97.0545 19.7307 95.8972 20.16 94.3852 20.16ZM94.3852 17.36C95.4492 17.36 95.9812 16.716 95.9812 15.428V4.732C95.9812 3.444 95.4492 2.8 94.3852 2.8C93.3212 2.8 92.7892 3.444 92.7892 4.732V15.428C92.7892 16.716 93.3212 17.36 94.3852 17.36ZM103.416 0.280004H106.384L107.756 15.344H107.812L109.268 0.280004H112.628L114.084 15.344H114.14L115.512 0.280004H118.172L116.184 19.88H112.348L110.948 6.664H110.892L109.492 19.88H105.404L103.416 0.280004Z" fill="#111928"/>
</svg>
