<svg width="129" height="21" viewBox="0 0 129 21" fill="none" xmlns="http://www.w3.org/2000/svg">
<path d="M4.53579 20.16C3.04246 20.16 1.91312 19.74 1.14779 18.9C0.382456 18.0413 -0.000210889 16.8187 -0.000210889 15.232V14.112H2.91179V15.456C2.91179 16.7253 3.44379 17.36 4.50779 17.36C5.03046 17.36 5.42246 17.2107 5.68379 16.912C5.96379 16.5947 6.10379 16.0907 6.10379 15.4C6.10379 14.5787 5.91712 13.86 5.54379 13.244C5.17046 12.6093 4.47979 11.8533 3.47179 10.976C2.20246 9.856 1.31579 8.848 0.811789 7.952C0.307789 7.03734 0.0557891 6.01067 0.0557891 4.872C0.0557891 3.32267 0.447789 2.128 1.23179 1.288C2.01579 0.429337 3.15446 3.8147e-06 4.64779 3.8147e-06C6.12246 3.8147e-06 7.23312 0.429337 7.97979 1.288C8.74512 2.128 9.12779 3.34134 9.12779 4.928V5.74001H6.21579V4.732C6.21579 4.06 6.08512 3.57467 5.82379 3.276C5.56246 2.95867 5.17979 2.8 4.67579 2.8C3.64912 2.8 3.13579 3.42534 3.13579 4.676C3.13579 5.38534 3.32246 6.048 3.69579 6.664C4.08779 7.28 4.78779 8.02667 5.79579 8.904C7.08379 10.024 7.97046 11.0413 8.45579 11.956C8.94112 12.8707 9.18379 13.944 9.18379 15.176C9.18379 16.7813 8.78246 18.0133 7.97979 18.872C7.19579 19.7307 6.04779 20.16 4.53579 20.16ZM13.2218 0.280004H16.1898L17.5618 15.344H17.6178L19.0738 0.280004H22.4338L23.8898 15.344H23.9458L25.3178 0.280004H27.9778L25.9898 19.88H22.1538L20.7538 6.664H20.6978L19.2978 19.88H15.2098L13.2218 0.280004ZM32.5357 0.280004H35.6157V19.88H32.5357V0.280004ZM40.9224 0.280004H44.7864L47.7824 12.012H47.8384V0.280004H50.5824V19.88H47.4184L43.7224 5.572H43.6664V19.88H40.9224V0.280004ZM60.2396 20.16C58.7463 20.16 57.6076 19.74 56.8236 18.9C56.0396 18.0413 55.6476 16.8187 55.6476 15.232V4.928C55.6476 3.34134 56.0396 2.128 56.8236 1.288C57.6076 0.429337 58.7463 3.8147e-06 60.2396 3.8147e-06C61.733 3.8147e-06 62.8716 0.429337 63.6556 1.288C64.4396 2.128 64.8316 3.34134 64.8316 4.928V6.608H61.9196V4.732C61.9196 3.444 61.3876 2.8 60.3236 2.8C59.2596 2.8 58.7276 3.444 58.7276 4.732V15.456C58.7276 16.7253 59.2596 17.36 60.3236 17.36C61.3876 17.36 61.9196 16.7253 61.9196 15.456V11.62H60.3796V8.82H64.8316V15.232C64.8316 16.8187 64.4396 18.0413 63.6556 18.9C62.8716 19.74 61.733 20.16 60.2396 20.16Z" fill="#1A56DB"/>
<path d="M69.8091 0.280004H74.3731C75.9598 0.280004 77.1171 0.653337 77.8451 1.4C78.5731 2.128 78.9371 3.25734 78.9371 4.788V5.992C78.9371 8.02667 78.2651 9.31467 76.9211 9.856V9.912C77.6678 10.136 78.1905 10.5933 78.4891 11.284C78.8065 11.9747 78.9651 12.8987 78.9651 14.056V17.5C78.9651 18.06 78.9838 18.5173 79.0211 18.872C79.0585 19.208 79.1518 19.544 79.3011 19.88H76.1651C76.0531 19.5627 75.9785 19.264 75.9411 18.984C75.9038 18.704 75.8851 18.2 75.8851 17.472V13.888C75.8851 12.992 75.7358 12.3667 75.4371 12.012C75.1571 11.6573 74.6625 11.48 73.9531 11.48H72.8891V19.88H69.8091V0.280004ZM74.0091 8.68C74.6251 8.68 75.0825 8.52134 75.3811 8.204C75.6985 7.88667 75.8571 7.35467 75.8571 6.608V5.096C75.8571 4.38667 75.7265 3.87334 75.4651 3.556C75.2225 3.23867 74.8305 3.08 74.2891 3.08H72.8891V8.68H74.0091ZM84.1021 0.280004H87.1821V19.88H84.1021V0.280004ZM92.4888 0.280004H97.1928C98.7235 0.280004 99.8715 0.69067 100.637 1.512C101.402 2.33334 101.785 3.53734 101.785 5.124V15.036C101.785 16.6227 101.402 17.8267 100.637 18.648C99.8715 19.4693 98.7235 19.88 97.1928 19.88H92.4888V0.280004ZM97.1368 17.08C97.6408 17.08 98.0235 16.9307 98.2848 16.632C98.5648 16.3333 98.7048 15.848 98.7048 15.176V4.984C98.7048 4.312 98.5648 3.82667 98.2848 3.528C98.0235 3.22934 97.6408 3.08 97.1368 3.08H95.5688V17.08H97.1368ZM106.864 0.280004H115.264V3.08H109.944V8.26H114.172V11.06H109.944V17.08H115.264V19.88H106.864V0.280004ZM124.094 20.16C122.601 20.16 121.472 19.74 120.706 18.9C119.941 18.0413 119.558 16.8187 119.558 15.232V14.112H122.47V15.456C122.47 16.7253 123.002 17.36 124.066 17.36C124.589 17.36 124.981 17.2107 125.242 16.912C125.522 16.5947 125.662 16.0907 125.662 15.4C125.662 14.5787 125.476 13.86 125.102 13.244C124.729 12.6093 124.038 11.8533 123.03 10.976C121.761 9.856 120.874 8.848 120.37 7.952C119.866 7.03734 119.614 6.01067 119.614 4.872C119.614 3.32267 120.006 2.128 120.79 1.288C121.574 0.429337 122.713 3.8147e-06 124.206 3.8147e-06C125.681 3.8147e-06 126.792 0.429337 127.538 1.288C128.304 2.128 128.686 3.34134 128.686 4.928V5.74001H125.774V4.732C125.774 4.06 125.644 3.57467 125.382 3.276C125.121 2.95867 124.738 2.8 124.234 2.8C123.208 2.8 122.694 3.42534 122.694 4.676C122.694 5.38534 122.881 6.048 123.254 6.664C123.646 7.28 124.346 8.02667 125.354 8.904C126.642 10.024 127.529 11.0413 128.014 11.956C128.5 12.8707 128.742 13.944 128.742 15.176C128.742 16.7813 128.341 18.0133 127.538 18.872C126.754 19.7307 125.606 20.16 124.094 20.16Z" fill="#111928"/>
</svg>
