<svg width="148" height="38" viewBox="0 0 148 38" fill="none" xmlns="http://www.w3.org/2000/svg">
<path d="M0 14.5C0 6.76801 6.26801 0.5 14 0.5H22C29.732 0.5 36 6.76801 36 14.5V23.5C36 31.232 29.732 37.5 22 37.5H14C6.26801 37.5 0 31.232 0 23.5V14.5Z" fill="#1A56DB"/>
<path d="M25.4985 24H27.4985C28.0985 24 28.4985 23.6 28.4985 23V20C28.4985 19.1 27.7985 18.3 26.9985 18.1C25.1985 17.6 22.4985 17 22.4985 17C22.4985 17 21.1985 15.6 20.2985 14.7C19.7985 14.3 19.1985 14 18.4985 14H11.4985C10.8985 14 10.3985 14.4 10.0985 14.9L8.69854 17.8C8.56612 18.1862 8.49854 18.5917 8.49854 19V23C8.49854 23.6 8.89854 24 9.49854 24H11.4985" stroke="white" stroke-width="1.5" stroke-linecap="round" stroke-linejoin="round"/>
<path d="M13.4985 26C14.6031 26 15.4985 25.1046 15.4985 24C15.4985 22.8954 14.6031 22 13.4985 22C12.394 22 11.4985 22.8954 11.4985 24C11.4985 25.1046 12.394 26 13.4985 26Z" stroke="white" stroke-width="1.5" stroke-linecap="round" stroke-linejoin="round"/>
<path d="M15.4985 24H21.4985" stroke="white" stroke-width="1.5" stroke-linecap="round" stroke-linejoin="round"/>
<path d="M23.4985 26C24.6031 26 25.4985 25.1046 25.4985 24C25.4985 22.8954 24.6031 22 23.4985 22C22.394 22 21.4985 22.8954 21.4985 24C21.4985 25.1046 22.394 26 23.4985 26Z" stroke="white" stroke-width="1.5" stroke-linecap="round" stroke-linejoin="round"/>
<path d="M52.976 16.192C52.1653 16.192 51.44 16.0533 50.8 15.776C50.1707 15.4987 49.6693 15.0933 49.296 14.56C48.9227 14.0267 48.7307 13.3813 48.72 12.624H51.088C51.0987 12.944 51.1787 13.232 51.328 13.488C51.488 13.744 51.7067 13.9467 51.984 14.096C52.2613 14.2453 52.5867 14.32 52.96 14.32C53.2907 14.32 53.5733 14.2667 53.808 14.16C54.0533 14.0533 54.24 13.904 54.368 13.712C54.5067 13.52 54.576 13.2853 54.576 13.008C54.576 12.7093 54.496 12.4533 54.336 12.24C54.1867 12.0267 53.9787 11.8453 53.712 11.696C53.4453 11.5467 53.136 11.4133 52.784 11.296C52.4427 11.168 52.0747 11.04 51.68 10.912C50.7947 10.624 50.1173 10.24 49.648 9.76C49.1893 9.28 48.96 8.64 48.96 7.84C48.96 7.15733 49.12 6.576 49.44 6.096C49.7707 5.616 50.224 5.248 50.8 4.992C51.3867 4.736 52.048 4.608 52.784 4.608C53.5413 4.608 54.208 4.74133 54.784 5.008C55.36 5.264 55.8133 5.63733 56.144 6.128C56.4853 6.61867 56.6667 7.2 56.688 7.872H54.288C54.2773 7.62667 54.208 7.40267 54.08 7.2C53.952 6.98667 53.776 6.816 53.552 6.688C53.328 6.56 53.0613 6.496 52.752 6.496C52.4853 6.48533 52.24 6.528 52.016 6.624C51.8027 6.70933 51.632 6.84267 51.504 7.024C51.376 7.19467 51.312 7.41333 51.312 7.68C51.312 7.94667 51.376 8.17067 51.504 8.352C51.632 8.52267 51.808 8.672 52.032 8.8C52.2667 8.928 52.5387 9.05067 52.848 9.168C53.1573 9.27467 53.4933 9.38667 53.856 9.504C54.4213 9.696 54.9387 9.92533 55.408 10.192C55.8773 10.448 56.2507 10.784 56.528 11.2C56.816 11.616 56.96 12.1653 56.96 12.848C56.96 13.4453 56.8053 14 56.496 14.512C56.1867 15.0133 55.7387 15.4187 55.152 15.728C54.5653 16.0373 53.84 16.192 52.976 16.192ZM60.9534 16L58.0254 4.8H60.4254L62.3134 13.472L64.5854 4.8H67.0494L69.2414 13.472L71.1614 4.8H73.5774L70.5694 16H67.8974L65.7854 7.952L63.6094 16H60.9534ZM75.0724 16V4.8H77.3124V16H75.0724ZM79.4943 16V4.8H81.7343L86.8063 12.4V4.8H89.0463V16H86.8063L81.7343 8.416V16H79.4943ZM96.1566 16.192C95.09 16.192 94.162 15.9573 93.3726 15.488C92.5833 15.008 91.9646 14.3413 91.5166 13.488C91.0793 12.624 90.8606 11.6213 90.8606 10.48C90.8606 9.328 91.0846 8.31467 91.5326 7.44C91.9913 6.55467 92.642 5.86133 93.4846 5.36C94.338 4.85867 95.3513 4.608 96.5246 4.608C97.8473 4.608 98.9406 4.928 99.8046 5.568C100.679 6.19733 101.245 7.072 101.501 8.192H99.0046C98.8446 7.712 98.5513 7.33867 98.1246 7.072C97.7086 6.80533 97.17 6.672 96.5086 6.672C95.7833 6.672 95.17 6.82667 94.6686 7.136C94.1673 7.44533 93.7886 7.888 93.5326 8.464C93.2766 9.02933 93.1486 9.70667 93.1486 10.496C93.1486 11.2853 93.2766 11.9573 93.5326 12.512C93.7993 13.0667 94.1726 13.488 94.6526 13.776C95.1433 14.064 95.7193 14.208 96.3806 14.208C97.3406 14.208 98.066 13.952 98.5566 13.44C99.058 12.9173 99.3566 12.256 99.4526 11.456H96.7486V9.792H101.709V16H99.6446L99.4686 14.624C99.234 14.9547 98.962 15.2373 98.6526 15.472C98.3433 15.7067 97.9806 15.8827 97.5646 16C97.1593 16.128 96.69 16.192 96.1566 16.192Z" fill="#0B0B0B"/>
<path d="M103.713 16V4.8H107.953C108.86 4.8 109.606 4.95467 110.193 5.264C110.79 5.57333 111.233 5.98933 111.521 6.512C111.82 7.024 111.969 7.6 111.969 8.24C111.969 8.83733 111.825 9.39733 111.537 9.92C111.26 10.4427 110.822 10.864 110.225 11.184C109.628 11.4933 108.865 11.648 107.937 11.648H105.953V16H103.713ZM109.505 16L107.217 11.088H109.649L112.065 16H109.505ZM105.953 10.016H107.825C108.454 10.016 108.918 9.86133 109.217 9.552C109.526 9.24267 109.681 8.832 109.681 8.32C109.681 7.81867 109.532 7.41867 109.233 7.12C108.934 6.82133 108.46 6.672 107.809 6.672H105.953V10.016ZM113.854 16V4.8H116.094V16H113.854ZM118.276 16V4.8H122.084C123.374 4.8 124.446 5.03467 125.3 5.504C126.153 5.96267 126.782 6.61333 127.188 7.456C127.604 8.288 127.812 9.26933 127.812 10.4C127.812 11.52 127.604 12.5013 127.188 13.344C126.782 14.1867 126.153 14.8427 125.3 15.312C124.457 15.7707 123.38 16 122.068 16H118.276ZM120.516 14.08H121.956C122.852 14.08 123.556 13.936 124.068 13.648C124.59 13.3493 124.964 12.928 125.188 12.384C125.412 11.8293 125.524 11.168 125.524 10.4C125.524 9.632 125.412 8.976 125.188 8.432C124.964 7.87733 124.59 7.45067 124.068 7.152C123.556 6.85333 122.852 6.704 121.956 6.704H120.516V14.08ZM129.619 16V4.8H137.027V6.608H131.859V9.44H136.547V11.184H131.859V14.192H137.027V16H129.619ZM142.867 16.192C142.056 16.192 141.331 16.0533 140.691 15.776C140.061 15.4987 139.56 15.0933 139.187 14.56C138.813 14.0267 138.621 13.3813 138.611 12.624H140.979C140.989 12.944 141.069 13.232 141.219 13.488C141.379 13.744 141.597 13.9467 141.875 14.096C142.152 14.2453 142.477 14.32 142.851 14.32C143.181 14.32 143.464 14.2667 143.699 14.16C143.944 14.0533 144.131 13.904 144.259 13.712C144.397 13.52 144.467 13.2853 144.467 13.008C144.467 12.7093 144.387 12.4533 144.227 12.24C144.077 12.0267 143.869 11.8453 143.603 11.696C143.336 11.5467 143.027 11.4133 142.675 11.296C142.333 11.168 141.965 11.04 141.571 10.912C140.685 10.624 140.008 10.24 139.539 9.76C139.08 9.28 138.851 8.64 138.851 7.84C138.851 7.15733 139.011 6.576 139.331 6.096C139.661 5.616 140.115 5.248 140.691 4.992C141.277 4.736 141.939 4.608 142.675 4.608C143.432 4.608 144.099 4.74133 144.675 5.008C145.251 5.264 145.704 5.63733 146.035 6.128C146.376 6.61867 146.557 7.2 146.579 7.872H144.179C144.168 7.62667 144.099 7.40267 143.971 7.2C143.843 6.98667 143.667 6.816 143.443 6.688C143.219 6.56 142.952 6.496 142.643 6.496C142.376 6.48533 142.131 6.528 141.907 6.624C141.693 6.70933 141.523 6.84267 141.395 7.024C141.267 7.19467 141.203 7.41333 141.203 7.68C141.203 7.94667 141.267 8.17067 141.395 8.352C141.523 8.52267 141.699 8.672 141.923 8.8C142.157 8.928 142.429 9.05067 142.739 9.168C143.048 9.27467 143.384 9.38667 143.747 9.504C144.312 9.696 144.829 9.92533 145.299 10.192C145.768 10.448 146.141 10.784 146.419 11.2C146.707 11.616 146.851 12.1653 146.851 12.848C146.851 13.4453 146.696 14 146.387 14.512C146.077 15.0133 145.629 15.4187 145.043 15.728C144.456 16.0373 143.731 16.192 142.867 16.192Z" fill="#1A56DB"/>
<path d="M51 35.12C50.4867 35.12 50.04 35.0267 49.66 34.84C49.28 34.6533 48.9867 34.3933 48.78 34.06C48.5733 33.7267 48.47 33.34 48.47 32.9H49.35C49.35 33.1733 49.4133 33.4267 49.54 33.66C49.6667 33.8867 49.85 34.07 50.09 34.21C50.3367 34.3433 50.64 34.41 51 34.41C51.3133 34.41 51.58 34.36 51.8 34.26C52.0267 34.1533 52.1967 34.01 52.31 33.83C52.43 33.65 52.49 33.4467 52.49 33.22C52.49 32.96 52.4333 32.7467 52.32 32.58C52.2133 32.4067 52.0633 32.2667 51.87 32.16C51.6767 32.0533 51.45 31.9567 51.19 31.87C50.9367 31.7833 50.6633 31.6933 50.37 31.6C49.79 31.4133 49.3667 31.18 49.1 30.9C48.84 30.6133 48.71 30.2467 48.71 29.8C48.71 29.42 48.7967 29.0867 48.97 28.8C49.15 28.5133 49.4033 28.29 49.73 28.13C50.0633 27.9633 50.4567 27.88 50.91 27.88C51.3567 27.88 51.7433 27.9633 52.07 28.13C52.4033 28.2967 52.6633 28.5267 52.85 28.82C53.0367 29.1067 53.13 29.44 53.13 29.82H52.25C52.25 29.6267 52.2 29.4367 52.1 29.25C52 29.0633 51.8467 28.91 51.64 28.79C51.44 28.6633 51.1867 28.6 50.88 28.6C50.6267 28.5933 50.4 28.6367 50.2 28.73C50.0067 28.8167 49.8533 28.9433 49.74 29.11C49.6333 29.2767 49.58 29.48 49.58 29.72C49.58 29.9467 49.6267 30.13 49.72 30.27C49.82 30.41 49.96 30.53 50.14 30.63C50.3267 30.7233 50.5433 30.81 50.79 30.89C51.0367 30.97 51.31 31.06 51.61 31.16C51.95 31.2733 52.25 31.4133 52.51 31.58C52.7767 31.74 52.9833 31.9467 53.13 32.2C53.2833 32.4533 53.36 32.7767 53.36 33.17C53.36 33.5033 53.27 33.82 53.09 34.12C52.9167 34.4133 52.6567 34.6533 52.31 34.84C51.9633 35.0267 51.5267 35.12 51 35.12ZM54.6196 35V28H55.5996L57.9896 32.92L60.3796 28H61.3696V35H60.5296V29.51L58.3096 34.07H57.6796L55.4596 29.54V35H54.6196ZM62.4409 35L65.0209 28H65.9109L68.4809 35H67.5809L65.4609 29.05L63.3209 35H62.4409ZM63.6209 33.2L63.8609 32.52H67.0309L67.2709 33.2H63.6209ZM69.5513 35V28H71.8113C72.3579 28 72.8046 28.0933 73.1513 28.28C73.4979 28.46 73.7546 28.7033 73.9212 29.01C74.0879 29.3167 74.1713 29.6633 74.1713 30.05C74.1713 30.4233 74.0846 30.7667 73.9113 31.08C73.7446 31.3933 73.4846 31.6433 73.1313 31.83C72.7779 32.0167 72.3246 32.11 71.7713 32.11H70.3913V35H69.5513ZM73.2513 35L71.7113 31.87H72.6513L74.2413 35H73.2513ZM70.3913 31.45H71.7513C72.2846 31.45 72.6746 31.32 72.9213 31.06C73.1746 30.8 73.3013 30.4667 73.3013 30.06C73.3013 29.6467 73.1779 29.32 72.9313 29.08C72.6913 28.8333 72.2946 28.71 71.7413 28.71H70.3913V31.45ZM77.148 35V28.69H75.058V28H80.078V28.69H77.988V35H77.148ZM83.3686 35L85.9486 28H86.8386L89.4086 35H88.5086L86.3886 29.05L84.2486 35H83.3686ZM84.5486 33.2L84.7886 32.52H87.9586L88.1986 33.2H84.5486ZM92.6663 35.12C92.1863 35.12 91.7496 35.0233 91.3563 34.83C90.9696 34.6367 90.6596 34.3433 90.4263 33.95C90.1929 33.55 90.0763 33.04 90.0763 32.42V28H90.9163V32.43C90.9163 32.8833 90.9896 33.2533 91.1363 33.54C91.2896 33.8267 91.4996 34.0367 91.7663 34.17C92.0329 34.3033 92.3396 34.37 92.6863 34.37C93.0396 34.37 93.3463 34.3033 93.6063 34.17C93.8663 34.0367 94.0696 33.8267 94.2163 33.54C94.3629 33.2533 94.4363 32.8833 94.4363 32.43V28H95.2763V32.42C95.2763 33.04 95.1596 33.55 94.9263 33.95C94.6929 34.3433 94.3796 34.6367 93.9863 34.83C93.5929 35.0233 93.1529 35.12 92.6663 35.12ZM98.3492 35V28.69H96.2592V28H101.279V28.69H99.1892V35H98.3492ZM104.983 35.12C104.336 35.12 103.766 34.97 103.273 34.67C102.779 34.3633 102.396 33.94 102.123 33.4C101.849 32.8533 101.713 32.22 101.713 31.5C101.713 30.7867 101.849 30.16 102.123 29.62C102.396 29.0733 102.779 28.6467 103.273 28.34C103.766 28.0333 104.336 27.88 104.983 27.88C105.643 27.88 106.216 28.0333 106.703 28.34C107.196 28.6467 107.576 29.0733 107.843 29.62C108.116 30.16 108.253 30.7867 108.253 31.5C108.253 32.22 108.116 32.8533 107.843 33.4C107.576 33.94 107.196 34.3633 106.703 34.67C106.216 34.97 105.643 35.12 104.983 35.12ZM104.983 34.38C105.469 34.38 105.893 34.2667 106.253 34.04C106.613 33.8067 106.893 33.4767 107.093 33.05C107.293 32.6167 107.393 32.1 107.393 31.5C107.393 30.9 107.293 30.3867 107.093 29.96C106.893 29.5267 106.613 29.1967 106.253 28.97C105.893 28.7433 105.469 28.63 104.983 28.63C104.503 28.63 104.079 28.7433 103.713 28.97C103.353 29.1967 103.073 29.5267 102.873 29.96C102.673 30.3867 102.573 30.9 102.573 31.5C102.573 32.1 102.673 32.6167 102.873 33.05C103.073 33.4767 103.353 33.8067 103.713 34.04C104.079 34.2667 104.503 34.38 104.983 34.38ZM112.188 35V28H114.448C114.995 28 115.441 28.0933 115.788 28.28C116.135 28.46 116.391 28.7033 116.558 29.01C116.725 29.3167 116.808 29.6633 116.808 30.05C116.808 30.4233 116.721 30.7667 116.548 31.08C116.381 31.3933 116.121 31.6433 115.768 31.83C115.415 32.0167 114.961 32.11 114.408 32.11H113.028V35H112.188ZM115.888 35L114.348 31.87H115.288L116.878 35H115.888ZM113.028 31.45H114.388C114.921 31.45 115.311 31.32 115.558 31.06C115.811 30.8 115.938 30.4667 115.938 30.06C115.938 29.6467 115.815 29.32 115.568 29.08C115.328 28.8333 114.931 28.71 114.378 28.71H113.028V31.45ZM118.155 35V28H122.485V28.69H118.995V31.13H122.185V31.81H118.995V34.31H122.485V35H118.155ZM123.838 35V28H124.678L128.408 33.62V28H129.248V35H128.408L124.678 29.38V35H123.838ZM132.412 35V28.69H130.322V28H135.342V28.69H133.252V35H132.412ZM135.165 35L137.745 28H138.635L141.205 35H140.305L138.185 29.05L136.045 35H135.165ZM136.345 33.2L136.585 32.52H139.755L139.995 33.2H136.345ZM142.276 35V28H143.116V34.33H146.376V35H142.276Z" fill="#0891B2"/>
</svg>
